<?xml version="1.0" encoding="iso-8859-1"?>
<!-- Uploaded to: SVG Repo, www.svgrepo.com, Generator: SVG Repo Mixer Tools -->
<svg height="800px" width="800px" version="1.1" id="Layer_1" xmlns="http://www.w3.org/2000/svg" xmlns:xlink="http://www.w3.org/1999/xlink" 
	 viewBox="0 0 296.999 296.999" xml:space="preserve">
<g>
	<g id="XMLID_22_">
		<g>
			<path d="M295.544,151.219c2.558,8.294,1.724,17.097-2.335,24.77c-1.483,2.789-3.336,5.291-5.486,7.497v10.583
				c0,17.922-14.586,32.508-32.507,32.508h-94.048l-92.129,28.347c-3.178,0.982-6.385,1.446-9.545,1.446
				c-13.9,0-26.799-8.998-31.09-22.954l-3.577-11.62c-9.332-5.718-15.568-16.004-15.568-27.726v-22.852l-7.82-25.429
				c-3.614-11.75-0.204-24.01,7.821-32.257V102.94c0-17.922,14.586-32.508,32.517-32.508h94.038l92.139-28.347
				c8.294-2.558,17.097-1.724,24.77,2.335c7.673,4.068,13.307,10.879,15.865,19.173l3.577,11.62
				c9.322,5.718,15.559,16.004,15.559,27.726v22.852L295.544,151.219z M269.19,194.068v-91.129c0-7.701-6.264-13.974-13.974-13.974
				H41.776c-7.71,0-13.983,6.274-13.983,13.974v91.129c0,7.701,6.274,13.974,13.983,13.974h213.439
				C262.926,208.042,269.19,201.769,269.19,194.068z M251.305,70.432l-0.436-1.39c-1.093-3.568-3.512-6.496-6.811-8.238
				c-2.048-1.084-4.281-1.631-6.524-1.631c-1.381,0-2.771,0.204-4.133,0.621l-34.565,10.638H251.305z M63.59,237.214l34.565-10.638
				H45.687l0.426,1.39C48.384,235.333,56.214,239.484,63.59,237.214z"/>
			<path style="fill:#FFE105;" d="M269.19,102.94v91.129c0,7.701-6.264,13.974-13.974,13.974H41.776
				c-7.71,0-13.983-6.274-13.983-13.974V102.94c0-7.701,6.274-13.974,13.983-13.974h213.439
				C262.926,88.966,269.19,95.239,269.19,102.94z M216.602,106.341c0-3.836-3.104-6.95-6.95-6.95c-3.836,0-6.95,3.114-6.95,6.95
				s3.114,6.95,6.95,6.95C213.497,113.291,216.602,110.177,216.602,106.341z M216.602,127.654c0-3.836-3.104-6.95-6.95-6.95
				c-3.836,0-6.95,3.114-6.95,6.95s3.114,6.95,6.95,6.95C213.497,134.604,216.602,131.49,216.602,127.654z M216.602,148.967
				c0-3.836-3.104-6.95-6.95-6.95c-3.836,0-6.95,3.114-6.95,6.95s3.114,6.95,6.95,6.95
				C213.497,155.917,216.602,152.804,216.602,148.967z M216.602,170.281c0-3.836-3.104-6.95-6.95-6.95
				c-3.836,0-6.95,3.114-6.95,6.95s3.114,6.95,6.95,6.95C213.497,177.231,216.602,174.117,216.602,170.281z M216.602,191.594
				c0-3.836-3.104-6.95-6.95-6.95c-3.836,0-6.95,3.114-6.95,6.95s3.114,6.95,6.95,6.95
				C213.497,198.544,216.602,195.43,216.602,191.594z M161.928,148.504c0-7.423-6.014-13.437-13.437-13.437H126.39l-23.704-23.695
				c-3.002-3.002-7.664-3.577-11.315-1.399c-3.642,2.187-5.338,6.57-4.105,10.638l4.383,14.456H72.792l-5.708-7.849
				c-3.308-4.55-9.684-5.56-14.243-2.252c-4.55,3.317-5.56,9.693-2.243,14.243l6.755,9.294l-6.755,9.294
				c-3.317,4.55-2.307,10.925,2.243,14.243c1.816,1.316,3.911,1.946,5.986,1.946c3.151,0,6.264-1.455,8.257-4.198l5.708-7.849H91.65
				l-4.383,14.456c-1.232,4.068,0.463,8.451,4.105,10.638c1.483,0.88,3.132,1.316,4.763,1.316c2.4,0,4.772-0.927,6.552-2.715
				l23.704-23.695h22.101C155.914,161.941,161.928,155.927,161.928,148.504z"/>
			<path style="fill:#FA802A;" d="M250.87,69.042l0.436,1.39h-52.468l34.565-10.638c1.362-0.417,2.752-0.621,4.133-0.621
				c2.243,0,4.476,0.547,6.524,1.631C247.358,62.546,249.776,65.475,250.87,69.042z"/>
			<path d="M209.652,99.391c3.846,0,6.95,3.114,6.95,6.95s-3.104,6.95-6.95,6.95c-3.836,0-6.95-3.114-6.95-6.95
				C202.702,102.504,205.815,99.391,209.652,99.391z"/>
			<path d="M209.652,120.704c3.846,0,6.95,3.114,6.95,6.95s-3.104,6.95-6.95,6.95c-3.836,0-6.95-3.114-6.95-6.95
				S205.815,120.704,209.652,120.704z"/>
			<path d="M209.652,142.017c3.846,0,6.95,3.114,6.95,6.95s-3.104,6.95-6.95,6.95c-3.836,0-6.95-3.114-6.95-6.95
				S205.815,142.017,209.652,142.017z"/>
			<path d="M209.652,163.331c3.846,0,6.95,3.114,6.95,6.95s-3.104,6.95-6.95,6.95c-3.836,0-6.95-3.114-6.95-6.95
				C202.702,166.444,205.815,163.331,209.652,163.331z"/>
			<path d="M209.652,184.644c3.846,0,6.95,3.114,6.95,6.95s-3.104,6.95-6.95,6.95c-3.836,0-6.95-3.114-6.95-6.95
				S205.815,184.644,209.652,184.644z"/>
			<path d="M148.492,135.067c7.423,0,13.437,6.014,13.437,13.437s-6.014,13.437-13.437,13.437H126.39l-23.704,23.695
				c-1.779,1.788-4.151,2.715-6.552,2.715c-1.631,0-3.28-0.436-4.763-1.316c-3.642-2.187-5.338-6.57-4.105-10.638l4.383-14.456
				H72.792l-5.708,7.849c-1.992,2.743-5.106,4.198-8.257,4.198c-2.076,0-4.17-0.63-5.986-1.946c-4.55-3.317-5.56-9.693-2.243-14.243
				l6.755-9.294l-6.755-9.294c-3.317-4.55-2.307-10.925,2.243-14.243c4.559-3.308,10.935-2.298,14.243,2.252l5.708,7.849H91.65
				l-4.383-14.456c-1.232-4.068,0.463-8.451,4.105-10.638c3.651-2.178,8.312-1.603,11.315,1.399l23.704,23.695h22.101V135.067z"/>
			<path style="fill:#FA802A;" d="M98.155,226.576L63.59,237.214c-7.376,2.27-15.207-1.881-17.477-9.248l-0.426-1.39H98.155z"/>
		</g>
	</g>
</g>
</svg>